<?xml version="1.0" encoding="UTF-8" standalone="no"?>
<svg
   width="3240"
   height="512"
   viewBox="0 0 3240 512"
   version="1.1"
   xmlns="http://www.w3.org/2000/svg"
   xmlns:svg="http://www.w3.org/2000/svg"
   xmlns:rdf="http://www.w3.org/1999/02/22-rdf-syntax-ns#"
   xmlns:cc="http://creativecommons.org/ns#"
   xmlns:dc="http://purl.org/dc/elements/1.1/">
   <title>ShortBook logotype</title>
   <metadata>
      <rdf:RDF>
         <cc:Work
            rdf:about="">
            <dc:title>ShortBook logotype</dc:title>
            <dc:creator>
               <cc:Agent>
                  <dc:title>Shunsuke Kurachi</dc:title>
               </cc:Agent>
            </dc:creator>
            <dc:rights>
               <cc:Agent>
                  <dc:title>ShortBook LLC</dc:title>
               </cc:Agent>
            </dc:rights>
         </cc:Work>
      </rdf:RDF>
   </metadata>
   <path
      style="fill:#924240;fill-opacity:1;stroke-width:0.999994;stroke-linecap:round;stroke-miterlimit:0"
      d="M 0,0 V 512.00002 H 170.66664 L 341.33328,256.00001 V 0 Z M 27.196673,71.199981 H 270.13327 V 142.3967 H 27.196673 Z m 258.366587,208.036679 -130.3866,195.58669 -50.15334,-120.36 z" />
   <g style="fill:#924240;fill-opacity:1;stroke:none">
      <path
         d="m 696.4595,48 3.2248,132.51022 h -12.0197 c -5.6678,-33.22527 -19.642,-59.90321 -41.9225,-80.03383 -22.085,-20.32605 -46.0267,-30.489075 -71.8252,-30.489075 -19.9351,0 -35.766,5.374675 -47.4926,16.124035 -11.5311,10.55391 -17.2967,22.76908 -17.2967,36.64552 0,8.79492 2.0522,16.61265 6.1565,23.45312 5.6678,9.18582 14.7559,18.27392 27.2643,27.26429 9.1858,6.44961 30.3913,17.88302 63.6166,34.3002 46.5154,22.86681 77.8839,44.46325 94.1057,64.78928 16.0263,20.32606 24.0394,43.58376 24.0394,69.77309 0,33.22527 -12.9969,61.85764 -38.9908,85.89712 C 659.5208,452.078 626.6865,464 586.8161,464 c -12.5083,0 -24.3326,-1.27037 -35.4728,-3.81114 -11.1402,-2.54074 -25.1144,-7.32911 -41.9225,-14.36503 -9.3813,-3.90886 -17.1012,-5.8633 -23.16,-5.8633 -5.0815,0 -10.4562,1.95444 -16.124,5.8633 -5.6678,3.90885 -10.2608,9.86985 -13.7787,17.88301 H 445.511 V 313.60678 h 10.8471 c 8.5995,42.21562 25.1144,74.46369 49.5447,96.74418 24.6258,22.08503 51.1083,33.12755 79.4475,33.12755 21.8896,0 39.284,-5.96101 52.1832,-17.88302 13.0947,-11.92201 19.642,-25.79845 19.642,-41.62932 0,-9.38125 -2.5407,-18.46933 -7.6222,-27.26427 -4.8861,-8.79492 -12.4106,-17.10124 -22.5737,-24.91896 -10.163,-8.01314 -28.1437,-18.37162 -53.9422,-31.07539 -36.1569,-17.78529 -62.1508,-32.93212 -77.9816,-45.44045 -15.8309,-12.50834 -28.0461,-26.48252 -36.6456,-41.9225 -8.404,-15.43998 -12.606,-32.44349 -12.606,-51.01058 0,-31.66172 11.6288,-58.63282 34.8865,-80.9133 C 503.9484,59.140239 533.2648,48 568.64,48 c 12.8992,0 25.4075,1.563543 37.525,4.690626 9.1858,2.345315 20.326,6.742776 33.4207,13.192388 13.2901,6.254166 22.5736,9.381256 27.8506,9.381256 5.0815,0 9.0881,-1.56354 12.0197,-4.69063 2.9317,-3.127082 5.6679,-10.651631 8.2086,-22.57364 z" />
      <path
         d="m 876.4446,57.088 v 158.60183 c 15.0491,-15.83087 28.8278,-26.9711 41.3362,-33.42072 12.5082,-6.64505 25.5051,-9.96757 38.9908,-9.96757 17.199,0 31.857,4.88606 43.9745,14.65821 12.313,9.77213 20.4239,21.30326 24.3327,34.59336 4.1042,13.09467 6.1564,35.27743 6.1564,66.54828 v 107.00494 c 0,20.91237 1.9544,34.00705 5.8633,39.28399 3.9088,5.08151 11.8243,8.30633 23.7463,9.67442 v 10.55391 H 921.8851 v -10.55391 c 9.7721,-1.36809 17.1012,-5.27696 21.9872,-11.72656 3.518,-5.08153 5.2771,-17.49213 5.2771,-37.23185 V 272.85685 c 0,-22.67137 -0.8795,-36.84096 -2.6384,-42.50882 -1.7591,-5.86328 -4.7885,-10.35845 -9.0882,-13.48554 -4.1043,-3.32253 -8.795,-4.9838 -14.072,-4.9838 -7.8176,0 -15.4399,2.7362 -22.8668,8.20861 -7.4268,5.27695 -15.4399,14.6582 -24.0394,28.14376 v 146.87527 c 0,19.54427 1.4658,31.75945 4.3974,36.64553 3.7135,6.64503 11.3356,10.74935 22.8669,12.31288 v 10.55391 H 764.749 v -10.55391 c 11.5311,-1.17264 19.7397,-4.88607 24.6258,-11.14024 3.3225,-4.29974 4.9838,-16.9058 4.9838,-37.81817 V 116.60034 c 0,-20.71694 -1.9544,-33.61617 -5.8633,-38.69768 -3.7134,-5.08151 -11.6288,-8.40404 -23.7463,-9.96759 V 57.088 Z" />
      <path
         d="m 1224.3447,172.302 c 23.844,0 46.0267,6.15642 66.5483,18.46934 20.5214,12.31288 36.0591,29.80501 46.613,52.47639 10.7495,22.67138 16.124,47.4926 16.124,74.46371 0,38.89312 -9.8697,71.43434 -29.6095,97.62366 -23.844,31.66175 -56.7761,47.49261 -98.7965,47.49261 -41.2383,0 -72.9978,-14.46276 -95.2783,-43.3883 -22.2804,-28.92553 -33.4207,-62.44397 -33.4207,-100.55531 0,-39.28401 11.3358,-73.4865 34.0072,-102.60749 22.8667,-29.31642 54.1375,-43.97461 93.8125,-43.97461 z m 1.1727,20.81465 c -9.9677,0 -18.5672,3.81113 -25.7985,11.43342 -7.036,7.42681 -11.7267,22.28045 -14.072,44.56094 -2.1498,22.08503 -3.2247,52.86729 -3.2247,92.34672 0,20.91239 1.368,40.45666 4.1044,58.63284 2.1497,13.87644 6.7427,24.43036 13.7786,31.66175 7.0359,7.23137 15.049,10.84706 24.0395,10.84706 8.7947,0 16.124,-2.44303 21.9873,-7.3291 7.6222,-6.64506 12.7038,-15.92861 15.2446,-27.8506 3.9088,-18.56706 5.8633,-56.09208 5.8633,-112.57505 0,-33.22529 -1.8567,-55.99437 -5.5703,-68.30726 -3.7133,-12.50836 -9.1857,-21.59643 -16.417,-27.26427 -5.0816,-4.10431 -11.7267,-6.15645 -19.9352,-6.15645 z" />
      <path
         d="m 1505.6356,180.51059 v 62.15078 c 18.1764,-28.3392 34.1048,-47.1017 47.7858,-56.28751 13.681,-9.38124 26.8733,-14.07186 39.5771,-14.07186 10.9449,0 19.6421,3.42023 26.0918,10.26074 6.645,6.64504 9.9675,16.12402 9.9675,28.43689 0,13.09468 -3.2248,23.25771 -9.6745,30.48909 -6.2541,7.23138 -13.8763,10.84707 -22.8668,10.84707 -10.3584,0 -19.3488,-3.32252 -26.9711,-9.96758 -7.6223,-6.64505 -12.1175,-10.35847 -13.4855,-11.14024 -1.9545,-1.17266 -4.202,-1.75899 -6.7428,-1.75899 -5.6679,0 -11.0425,2.14987 -16.1241,6.44962 -8.0131,6.64503 -14.0718,16.12402 -18.1761,28.43691 -6.2541,18.95795 -9.3813,39.87032 -9.3813,62.73711 v 63.03029 l 0.2932,16.41718 c 0,11.14023 0.6842,18.2739 2.0521,21.40098 2.3454,5.27695 5.7656,9.18581 10.2607,11.72656 4.6907,2.34531 12.5086,3.81114 23.4532,4.39746 V 454.619 H 1393.647 v -10.55391 c 11.9219,-0.97721 19.9351,-4.20201 24.0394,-9.67441 4.2997,-5.66783 6.4495,-20.42374 6.4495,-44.26777 V 238.55707 c 0,-15.63542 -0.7816,-25.60301 -2.3453,-29.90274 -1.9543,-5.47239 -4.7882,-9.47898 -8.5018,-12.01971 -3.7133,-2.54077 -10.2606,-4.29975 -19.6418,-5.27696 v -10.84707 z" />
      <path
         d="m 1791.0129,80.248 v 100.26216 h 65.0823 v 29.02325 h -65.0823 v 169.15575 c 0,15.83086 0.684,26.09161 2.0521,30.78223 1.5635,4.49519 4.2021,8.2086 7.9155,11.14024 3.7134,2.73621 7.1337,4.10431 10.2606,4.10431 12.7039,0 24.7235,-9.67443 36.0592,-29.02326 l 8.7949,6.44962 c -15.8308,37.525 -41.5315,56.28752 -77.1021,56.28752 -17.3944,0 -32.1504,-4.78836 -44.2677,-14.36505 -11.9222,-9.77213 -19.5442,-20.61921 -22.8668,-32.54122 -1.9544,-6.64506 -2.9316,-24.62579 -2.9316,-53.94222 V 209.53341 h -35.766 v -10.26074 c 24.6257,-17.39441 45.5381,-35.66832 62.737,-54.82171 17.3943,-19.15339 32.5412,-40.55438 45.4402,-64.20296 z" />
      <path
         d="m 2148.7824,243.83359 c 37.7206,8.79494 64.2029,19.44657 79.4476,31.95491 21.8897,17.78529 32.8344,40.84753 32.8344,69.18674 0,29.90275 -12.0198,54.62626 -36.0593,74.17055 -29.5117,23.64858 -72.4114,35.47286 -128.699,35.47286 H 1894.316 v -10.84707 c 18.3716,0 30.7821,-1.66126 37.2318,-4.9838 6.645,-3.51796 11.2379,-8.01315 13.7787,-13.48555 2.7363,-5.47238 4.1044,-18.95794 4.1044,-40.45666 V 126.86109 c 0,-21.49872 -1.3681,-34.98427 -4.1044,-40.45667 -2.5408,-5.66784 -7.1337,-10.16302 -13.7787,-13.48555 -6.6451,-3.32253 -19.0557,-4.98379 -37.2318,-4.98379 V 57.088 h 190.5567 c 45.5382,0 77.7862,4.1043 96.7441,12.3129 18.958,8.01315 33.9095,20.13061 44.8542,36.35236 10.9448,16.0263 16.4172,33.12755 16.4172,51.30372 0,19.15341 -6.9382,36.25464 -20.8147,51.30373 -13.8763,14.85366 -38.3068,26.67796 -73.2911,35.47288 z m -106.7116,-7.91543 c 27.7528,0 48.1766,-3.12709 61.2711,-9.38125 13.2902,-6.25418 23.4532,-15.0491 30.489,-26.38478 7.0362,-11.33567 10.5541,-25.79845 10.5541,-43.38831 0,-17.58984 -3.5179,-31.95489 -10.5541,-43.09513 -6.8404,-11.33568 -16.7103,-19.93516 -29.6094,-25.79845 -12.8992,-5.86328 -33.6162,-8.6972 -62.1507,-8.50176 z m 0,22.86679 v 127.52644 l -0.2932,14.65821 c 0,10.55391 2.6384,18.56707 7.9154,24.03948 5.4723,5.27694 13.4853,7.91542 24.0394,7.91542 15.6355,0 30.0005,-3.42025 43.0951,-10.26075 13.2902,-7.03592 23.4531,-17.10125 30.4892,-30.1959 7.0359,-13.29011 10.5539,-28.04605 10.5539,-44.2678 0,-18.56706 -4.2998,-35.17971 -12.8993,-49.8379 -8.5995,-14.85366 -20.4238,-25.21213 -35.4728,-31.07542 -15.0492,-5.8633 -37.525,-8.6972 -67.4277,-8.50178 z" />
      <path
         d="m 2441.6877,172.302 c 23.844,0 46.0267,6.15642 66.5483,18.46934 20.5214,12.31288 36.0591,29.80501 46.613,52.47639 10.7495,22.67138 16.124,47.4926 16.124,74.46371 0,38.89312 -9.8697,71.43434 -29.6095,97.62366 -23.844,31.66175 -56.7761,47.49261 -98.7965,47.49261 -41.2383,0 -72.9978,-14.46276 -95.2783,-43.3883 -22.2804,-28.92553 -33.4207,-62.44397 -33.4207,-100.55531 0,-39.28401 11.3358,-73.4865 34.0072,-102.60749 22.8667,-29.31642 54.1375,-43.97461 93.8125,-43.97461 z m 1.1727,20.81465 c -9.9677,0 -18.5672,3.81113 -25.7985,11.43342 -7.036,7.42681 -11.7267,22.28045 -14.072,44.56094 -2.1498,22.08503 -3.2247,52.86729 -3.2247,92.34672 0,20.91239 1.368,40.45666 4.1044,58.63284 2.1497,13.87644 6.7427,24.43036 13.7786,31.66175 7.0359,7.23137 15.049,10.84706 24.0395,10.84706 8.7947,0 16.124,-2.44303 21.9873,-7.3291 7.6222,-6.64506 12.7038,-15.92861 15.2446,-27.8506 3.9088,-18.56706 5.8633,-56.09208 5.8633,-112.57505 0,-33.22529 -1.8567,-55.99437 -5.5703,-68.30726 -3.7133,-12.50836 -9.1857,-21.59643 -16.417,-27.26427 -5.0816,-4.10431 -11.7267,-6.15645 -19.9352,-6.15645 z" />
      <path
         d="m 2749.4517,172.302 c 23.844,0 46.0267,6.15642 66.5483,18.46934 20.5214,12.31288 36.0591,29.80501 46.613,52.47639 10.7495,22.67138 16.124,47.4926 16.124,74.46371 0,38.89312 -9.8697,71.43434 -29.6095,97.62366 -23.844,31.66175 -56.7761,47.49261 -98.7965,47.49261 -41.2383,0 -72.9978,-14.46276 -95.2783,-43.3883 -22.2804,-28.92553 -33.4207,-62.44397 -33.4207,-100.55531 0,-39.28401 11.3358,-73.4865 34.0072,-102.60749 22.8667,-29.31642 54.1375,-43.97461 93.8125,-43.97461 z m 1.1727,20.81465 c -9.9677,0 -18.5672,3.81113 -25.7985,11.43342 -7.036,7.42681 -11.7267,22.28045 -14.072,44.56094 -2.1498,22.08503 -3.2247,52.86729 -3.2247,92.34672 0,20.91239 1.368,40.45666 4.1044,58.63284 2.1497,13.87644 6.7427,24.43036 13.7786,31.66175 7.0359,7.23137 15.049,10.84706 24.0395,10.84706 8.7947,0 16.124,-2.44303 21.9873,-7.3291 7.6222,-6.64506 12.7038,-15.92861 15.2446,-27.8506 3.9088,-18.56706 5.8633,-56.09208 5.8633,-112.57505 0,-33.22529 -1.8567,-55.99437 -5.5703,-68.30726 -3.7133,-12.50836 -9.1857,-21.59643 -16.417,-27.26427 -5.0816,-4.10431 -11.7267,-6.15645 -19.9352,-6.15645 z" />
      <path
         d="m 3032.1465,57.088 v 261.50246 l 63.6167,-62.44397 c 13.0946,-12.70378 21.2055,-21.88959 24.3325,-27.55743 3.3225,-5.66785 4.9838,-11.14024 4.9838,-16.4172 0,-5.27694 -2.15,-9.67442 -6.4496,-13.19238 -4.2999,-3.51797 -12.7037,-6.05874 -25.212,-7.62227 v -10.84708 h 122.8357 v 10.84708 c -11.7266,0.58631 -21.9874,3.42024 -30.7823,8.50175 -8.7948,4.88608 -25.9938,19.83746 -51.5969,44.85414 l -29.9028,29.31641 64.4962,94.39887 c 25.994,38.30678 41.4339,59.8055 46.3199,64.49612 6.6452,6.64506 15.0493,10.35847 25.2121,11.14024 v 10.55391 h -141.5981 v -10.55391 c 6.2541,0 10.7491,-1.17264 13.4854,-3.51796 2.9316,-2.34532 4.3975,-4.88608 4.3975,-7.62228 0,-4.49518 -4.1043,-12.8015 -12.313,-24.91894 l -54.2352,-79.44751 -17.5899,17.29669 v 49.25159 c 0,20.91237 1.9544,34.00705 5.8632,39.28399 3.9089,5.08151 11.9221,8.30633 24.0395,9.67442 v 10.55391 H 2920.451 v -10.55391 c 11.5312,-1.17264 19.7397,-4.88607 24.6257,-11.14024 3.3225,-4.29974 4.9838,-16.9058 4.9838,-37.81817 V 116.60034 c 0,-20.71694 -1.9545,-33.61617 -5.8633,-38.69768 -3.7134,-5.08151 -11.6289,-8.40404 -23.7462,-9.96758 V 57.088 Z" />
   </g>
</svg>