<?xml version="1.0" standalone="no"?>
<!DOCTYPE svg PUBLIC "-//W3C//DTD SVG 20010904//EN"
 "http://www.w3.org/TR/2001/REC-SVG-20010904/DTD/svg10.dtd">
<svg version="1.0" xmlns="http://www.w3.org/2000/svg"
 width="700.000000pt" height="700.000000pt" viewBox="0 0 700.000000 700.000000"
 preserveAspectRatio="xMidYMid meet">
<metadata>
Created by potrace 1.14, written by Peter Selinger 2001-2017
</metadata>
<g transform="translate(0.000000,700.000000) scale(0.100000,-0.100000)"
fill="#000000" stroke="none">
<path d="M1420 6782 l-55 -3 2 -3275 c0 -1802 3 -3277 5 -3280 4 -3 845 -5
1949 -4 l235 0 1093 1640 1093 1639 2 1641 1 1640 -35 0 c-352 2 -4251 4
-4290 2z m3408 -1369 l-3 -458 -1548 0 c-1367 0 -1550 2 -1556 15 -6 11 -8
886 -2 898 0 1 701 2 1556 2 l1555 0 -2 -457z m-22 -2544 c-118 -178 -219
-328 -223 -334 -4 -5 -282 -422 -617 -925 -502 -752 -611 -911 -618 -895 -5
11 -149 358 -321 770 l-313 750 41 19 c57 26 89 40 180 76 44 18 94 38 110 46
17 7 399 166 850 354 451 187 858 357 905 376 47 20 103 44 125 53 22 10 51
22 65 28 14 6 26 9 28 8 2 -2 -94 -148 -212 -326z"/>
</g>
</svg>
