<?xml version="1.0" standalone="no"?>
<!DOCTYPE svg PUBLIC "-//W3C//DTD SVG 20010904//EN"
 "http://www.w3.org/TR/2001/REC-SVG-20010904/DTD/svg10.dtd">
<svg version="1.0" xmlns="http://www.w3.org/2000/svg"
 width="512.000000pt" height="512.000000pt" viewBox="0 0 512.000000 512.000000"
 preserveAspectRatio="xMidYMid meet">
<metadata>
Created by potrace 1.14, written by Peter Selinger 2001-2017
</metadata>
<g transform="translate(0.000000,512.000000) scale(0.100000,-0.100000)"
fill="#000000" stroke="none">
<path d="M1535 5108 c-2 -7 -11 -38 -19 -68 -8 -30 -29 -107 -46 -170 -17 -63
-33 -122 -35 -130 -5 -23 -158 -597 -221 -827 -30 -111 -57 -210 -59 -220 -3
-17 -58 -223 -150 -563 -20 -74 -48 -178 -61 -230 -14 -52 -36 -133 -49 -180
-25 -92 -86 -320 -224 -840 -95 -354 -109 -408 -165 -615 -19 -71 -49 -184
-66 -250 -57 -217 -79 -299 -109 -407 l-29 -107 41 -10 c23 -5 69 -17 102 -26
33 -9 67 -19 75 -20 8 -2 116 -31 240 -65 124 -34 234 -63 244 -65 10 -3 33
-9 50 -14 17 -6 83 -23 146 -40 63 -16 201 -53 305 -81 105 -28 298 -80 429
-115 l239 -64 61 52 c34 29 73 63 87 77 15 14 42 38 60 54 50 43 183 160 189
166 3 3 41 37 85 75 44 39 96 84 115 101 19 17 62 55 95 84 33 29 76 67 95 84
19 18 73 66 120 106 47 41 87 77 90 80 3 3 59 52 125 109 66 58 125 110 130
115 6 6 44 40 85 76 41 35 77 67 80 70 3 3 36 32 75 65 38 33 79 69 90 80 11
11 56 52 100 90 44 39 85 74 91 80 6 5 39 35 74 65 139 120 123 92 184 325 31
116 67 251 80 300 32 117 142 529 167 625 11 41 38 140 59 220 21 80 49 181
60 225 12 44 35 130 51 190 17 61 41 153 55 205 23 86 37 138 80 300 8 30 25
94 38 142 l23 86 -61 16 c-34 9 -69 19 -78 21 -10 3 -26 7 -35 10 -20 5 -217
57 -418 111 -71 19 -182 48 -245 65 -63 17 -248 66 -410 109 -653 174 -779
208 -807 214 -10 2 -43 11 -74 20 -31 9 -65 19 -75 21 -18 4 -235 61 -399 105
-38 10 -197 52 -353 94 -155 41 -291 78 -302 81 -12 4 -22 1 -25 -7z"/>
</g>
</svg>
