<?xml version="1.0" encoding="UTF-8" standalone="no"?>
<svg
   width="3170"
   height="512"
   viewBox="0 0 3170 512"
   version="1.1"
   xmlns="http://www.w3.org/2000/svg"
   xmlns:svg="http://www.w3.org/2000/svg"
   xmlns:rdf="http://www.w3.org/1999/02/22-rdf-syntax-ns#"
   xmlns:cc="http://creativecommons.org/ns#"
   xmlns:dc="http://purl.org/dc/elements/1.1/">
  <title>ShortBook logo</title>
  <g>
    <g>
      <path
         style="color:#000000;fill:#954240;fill-opacity:1;-inkscape-stroke:none"
         d="M 123.41406,0 C 82.275323,153.91647 41.138129,307.83336 0,461.75 62.35547,478.5 124.71094,495.25 187.06641,512 252.85352,453.92448 318.64062,395.84896 384.42773,337.77344 406.75325,254.24349 429.07878,170.71354 451.4043,87.183594 342.07422,58.122396 232.74414,29.061198 123.41406,0 Z" />
      <path
         style="fill:#fafafa;stroke-width:64.0002;stroke-linecap:round;stroke-miterlimit:0"
         d="M 138.63268,66.988007 327.87754,117.82393 306.23653,198.793 116.99166,147.95708 Z" />
      <path
         style="fill:#fafafa;fill-opacity:1;stroke:none;stroke-width:16;stroke-linecap:butt;stroke-linejoin:miter;stroke-miterlimit:0;stroke-dasharray:none;stroke-opacity:1"
         d="m 356.00829,320.17741 -177.23733,156.46 c -9.714,-49.8259 -28.65165,-97.90315 -52.37802,-141.67881 z" />
    </g>
    <path
       d="m 764.45953,48 3.22481,132.51022 H 755.66462 C 749.99678,147.28495 736.02261,120.60701 713.74213,100.47639 691.65708,80.150341 667.71536,69.987315 641.9169,69.987315 c -19.93514,0 -35.76601,5.374675 -47.49257,16.124031 -11.53113,10.553911 -17.2967,22.769084 -17.2967,36.645524 0,8.79492 2.05215,16.61265 6.15644,23.45312 5.66785,9.18582 14.75595,18.27392 27.26429,27.26429 9.18581,6.44961 30.39134,17.88302 63.61661,34.3002 46.51538,22.86681 77.88396,44.46325 94.1057,64.78928 16.02632,20.32606 24.03946,43.58376 24.03946,69.77309 0,33.22527 -12.99694,61.85764 -38.99084,85.89712 C 727.52084,452.078 694.68646,464 654.81613,464 c -12.50834,0 -24.33262,-1.27037 -35.47285,-3.81114 -11.14023,-2.54074 -25.1144,-7.32911 -41.92248,-14.36503 -9.38126,-3.90886 -17.10125,-5.8633 -23.15997,-5.8633 -5.08153,0 -10.45619,1.95444 -16.12403,5.8633 -5.66785,3.90885 -10.26076,9.86985 -13.77872,17.88301 H 513.511 V 313.60678 h 10.84708 c 8.59948,42.21562 25.11439,74.46369 49.54474,96.74418 24.6258,22.08503 51.1083,33.12755 79.4475,33.12755 21.88959,0 39.28399,-5.96101 52.18321,-17.88302 13.09467,-11.92201 19.64201,-25.79845 19.64201,-41.62932 0,-9.38125 -2.54077,-18.46933 -7.62227,-27.26427 -4.88607,-8.79492 -12.41062,-17.10124 -22.57366,-24.91896 -10.16301,-8.01314 -28.14374,-18.37162 -53.94218,-31.07539 -36.15692,-17.78529 -62.15082,-32.93212 -77.98168,-45.44045 -15.83088,-12.50834 -28.04605,-26.48252 -36.64552,-41.9225 -8.40405,-15.43998 -12.60606,-32.44349 -12.60606,-51.01058 0,-31.66172 11.62884,-58.63282 34.88654,-80.913302 C 571.9484,59.140239 601.26481,48 636.63997,48 c 12.8992,0 25.40754,1.563543 37.525,4.690626 9.18581,2.345315 20.32605,6.742776 33.42072,13.192388 13.29011,6.25417 22.57364,9.381256 27.85059,9.381256 5.08152,0 9.0881,-1.563542 12.01974,-4.690627 2.93164,-3.127085 5.66784,-10.651634 8.2086,-22.573643 z"
       style="font-weight:bold;font-size:739px;line-height:1.25;font-family:'Times New Roman';-inkscape-font-specification:'Times New Roman,  Bold';fill:#954240;stroke-width:0.999988"
       aria-label="ShortBook" />
    <path
       d="m 924.4446,57.088 v 158.60183 c 15.04913,-15.83087 28.82776,-26.9711 41.33622,-33.42072 12.50821,-6.64505 25.50507,-9.96757 38.99078,-9.96757 17.199,0 31.857,4.88606 43.9745,14.65821 12.313,9.77213 20.4239,21.30326 24.3327,34.59336 4.1042,13.09467 6.1564,35.27743 6.1564,66.54828 v 107.00494 c 0,20.91237 1.9544,34.00705 5.8633,39.28399 3.9088,5.08151 11.8243,8.30633 23.7463,9.67442 v 10.55391 H 969.88511 v -10.55391 c 9.77213,-1.36809 17.10114,-5.27696 21.98721,-11.72656 3.51797,-5.08153 5.27707,-17.49213 5.27707,-37.23185 V 272.85685 c 0,-22.67137 -0.8795,-36.84096 -2.6384,-42.50882 -1.7591,-5.86328 -4.78849,-10.35845 -9.0882,-13.48554 -4.10429,-3.32253 -8.79502,-4.9838 -14.07201,-4.9838 -7.81757,0 -15.43989,2.7362 -22.86678,8.20861 -7.42681,5.27695 -15.43989,14.6582 -24.0394,28.14376 v 146.87527 c 0,19.54427 1.46576,31.75945 4.39743,36.64553 3.71344,6.64503 11.3356,10.74935 22.86686,12.31288 v 10.55391 H 812.749 v -10.55391 c 11.53111,-1.17264 19.73972,-4.88607 24.62579,-11.14024 3.32252,-4.29974 4.98379,-16.9058 4.98379,-37.81817 V 116.60034 c 0,-20.71694 -1.95443,-33.61617 -5.86329,-38.69768 -3.7134,-5.08151 -11.62884,-8.40404 -23.74629,-9.96759 V 57.088 Z"
       style="font-weight:bold;font-size:739px;line-height:1.25;font-family:'Times New Roman';-inkscape-font-specification:'Times New Roman,  Bold';display:inline;fill:#954240;stroke-width:0.999988" />
    <path
       d="m 1252.3447,172.302 c 23.844,0 46.0267,6.15642 66.5483,18.46934 20.5214,12.31288 36.0591,29.80501 46.613,52.47639 10.7495,22.67138 16.124,47.4926 16.124,74.46371 0,38.89312 -9.8697,71.43434 -29.6095,97.62366 -23.844,31.66175 -56.7761,47.49261 -98.7965,47.49261 -41.2383,0 -72.9978,-14.46276 -95.2783,-43.3883 -22.2804,-28.92553 -33.4207,-62.44397 -33.4207,-100.55531 0,-39.28401 11.3358,-73.4865 34.0072,-102.60749 22.8667,-29.31642 54.1375,-43.97461 93.8125,-43.97461 z m 1.1727,20.81465 c -9.9677,0 -18.5672,3.81113 -25.7985,11.43342 -7.036,7.42681 -11.7267,22.28045 -14.072,44.56094 -2.1498,22.08503 -3.2247,52.86729 -3.2247,92.34672 0,20.91239 1.368,40.45666 4.1044,58.63284 2.1497,13.87644 6.7427,24.43036 13.7786,31.66175 7.0359,7.23137 15.049,10.84706 24.0395,10.84706 8.7947,0 16.124,-2.44303 21.9873,-7.3291 7.6222,-6.64506 12.7038,-15.92861 15.2446,-27.8506 3.9088,-18.56706 5.8633,-56.09208 5.8633,-112.57505 0,-33.22529 -1.8567,-55.99437 -5.5703,-68.30726 -3.7133,-12.50836 -9.1857,-21.59643 -16.417,-27.26427 -5.0816,-4.10431 -11.7267,-6.15645 -19.9352,-6.15645 z"
       style="font-weight:bold;font-size:739px;line-height:1.25;font-family:'Times New Roman';-inkscape-font-specification:'Times New Roman,  Bold';display:inline;fill:#954240;stroke-width:0.999988" />
    <path
       d="m 1515.6356,180.51059 v 62.15078 c 18.1764,-28.3392 34.1048,-47.1017 47.7858,-56.28751 13.681,-9.38124 26.8733,-14.07186 39.5771,-14.07186 10.9449,0 19.6421,3.42023 26.0918,10.26074 6.645,6.64504 9.9675,16.12402 9.9675,28.43689 0,13.09468 -3.2248,23.25771 -9.6745,30.48909 -6.2541,7.23138 -13.8763,10.84707 -22.8668,10.84707 -10.3584,0 -19.3488,-3.32252 -26.9711,-9.96758 -7.6223,-6.64505 -12.1175,-10.35847 -13.4855,-11.14024 -1.9545,-1.17266 -4.202,-1.75899 -6.7428,-1.75899 -5.6679,0 -11.0425,2.14987 -16.1241,6.44962 -8.0131,6.64503 -14.0718,16.12402 -18.1761,28.43691 -6.2541,18.95795 -9.3813,39.87032 -9.3813,62.73711 v 63.03029 l 0.2932,16.41718 c 0,11.14023 0.6842,18.2739 2.0521,21.40098 2.3454,5.27695 5.7656,9.18581 10.2607,11.72656 4.6907,2.34531 12.5086,3.81114 23.4532,4.39746 V 454.619 H 1403.647 v -10.55391 c 11.9219,-0.97721 19.9351,-4.20201 24.0394,-9.67441 4.2997,-5.66783 6.4495,-20.42374 6.4495,-44.26777 V 238.55707 c 0,-15.63542 -0.7816,-25.60301 -2.3453,-29.90274 -1.9543,-5.47239 -4.7882,-9.47898 -8.5018,-12.01971 -3.7133,-2.54077 -10.2606,-4.29975 -19.6418,-5.27696 v -10.84707 z"
       style="font-weight:bold;font-size:739px;line-height:1.25;font-family:'Times New Roman';-inkscape-font-specification:'Times New Roman,  Bold';display:inline;fill:#954240;stroke-width:0.999988" />
    <path
       d="m 1792.0129,80.248 v 100.26216 h 65.0823 v 29.02325 h -65.0823 v 169.15575 c 0,15.83086 0.684,26.09161 2.0521,30.78223 1.5635,4.49519 4.2021,8.2086 7.9155,11.14024 3.7134,2.73621 7.1337,4.10431 10.2606,4.10431 12.7039,0 24.7235,-9.67443 36.0592,-29.02326 l 8.7949,6.44962 c -15.8308,37.525 -41.5315,56.28752 -77.1021,56.28752 -17.3944,0 -32.1504,-4.78836 -44.2677,-14.36505 -11.9222,-9.77213 -19.5442,-20.61921 -22.8668,-32.54122 -1.9544,-6.64506 -2.9316,-24.62579 -2.9316,-53.94222 V 209.53341 h -35.766 v -10.26074 c 24.6257,-17.39441 45.5381,-35.66832 62.737,-54.82171 17.3943,-19.15339 32.5412,-40.55438 45.4402,-64.20296 z"
       style="font-weight:bold;font-size:739px;line-height:1.25;font-family:'Times New Roman';-inkscape-font-specification:'Times New Roman,  Bold';display:inline;fill:#954240;stroke-width:0.999988" />
    <path
       d="m 2123.7824,243.83359 c 37.7206,8.79494 64.2029,19.44657 79.4476,31.95491 21.8897,17.78529 32.8344,40.84753 32.8344,69.18674 0,29.90275 -12.0198,54.62626 -36.0593,74.17055 -29.5117,23.64858 -72.4114,35.47286 -128.699,35.47286 H 1869.316 v -10.84707 c 18.3716,0 30.7821,-1.66126 37.2318,-4.9838 6.645,-3.51796 11.2379,-8.01315 13.7787,-13.48555 2.7363,-5.47238 4.1044,-18.95794 4.1044,-40.45666 V 126.86109 c 0,-21.49872 -1.3681,-34.98427 -4.1044,-40.45667 -2.5408,-5.66784 -7.1337,-10.16302 -13.7787,-13.48555 -6.6451,-3.32253 -19.0557,-4.98379 -37.2318,-4.98379 V 57.088 h 190.5567 c 45.5382,0 77.7862,4.1043 96.7441,12.3129 18.958,8.01315 33.9095,20.13061 44.8542,36.35236 10.9448,16.0263 16.4172,33.12755 16.4172,51.30372 0,19.15341 -6.9382,36.25464 -20.8147,51.30373 -13.8763,14.85366 -38.3068,26.67796 -73.2911,35.47288 z m -106.7116,-7.91543 c 27.7528,0 48.1766,-3.12709 61.2711,-9.38125 13.2902,-6.25418 23.4532,-15.0491 30.489,-26.38478 7.0362,-11.33567 10.5541,-25.79845 10.5541,-43.38831 0,-17.58984 -3.5179,-31.95489 -10.5541,-43.09513 -6.8404,-11.33568 -16.7103,-19.93516 -29.6094,-25.79845 -12.8992,-5.86328 -33.6162,-8.6972 -62.1507,-8.50176 z m 0,22.86679 v 127.52644 l -0.2932,14.65821 c 0,10.55391 2.6384,18.56707 7.9154,24.03948 5.4723,5.27694 13.4853,7.91542 24.0394,7.91542 15.6355,0 30.0005,-3.42025 43.0951,-10.26075 13.2902,-7.03592 23.4531,-17.10125 30.4892,-30.1959 7.0359,-13.29011 10.5539,-28.04605 10.5539,-44.2678 0,-18.56706 -4.2998,-35.17971 -12.8993,-49.8379 -8.5995,-14.85366 -20.4238,-25.21213 -35.4728,-31.07542 -15.0492,-5.8633 -37.525,-8.6972 -67.4277,-8.50178 z"
       style="font-weight:bold;font-size:739px;line-height:1.25;font-family:'Times New Roman';-inkscape-font-specification:'Times New Roman,  Bold';display:inline;fill:#954240;stroke-width:0.999988" />
    <path
       d="m 2403.6877,172.302 c 23.844,0 46.0267,6.15642 66.5483,18.46934 20.5214,12.31288 36.0591,29.80501 46.613,52.47639 10.7495,22.67138 16.124,47.4926 16.124,74.46371 0,38.89312 -9.8697,71.43434 -29.6095,97.62366 -23.844,31.66175 -56.7761,47.49261 -98.7965,47.49261 -41.2383,0 -72.9978,-14.46276 -95.2783,-43.3883 -22.2804,-28.92553 -33.4207,-62.44397 -33.4207,-100.55531 0,-39.28401 11.3358,-73.4865 34.0072,-102.60749 22.8667,-29.31642 54.1375,-43.97461 93.8125,-43.97461 z m 1.1727,20.81465 c -9.9677,0 -18.5672,3.81113 -25.7985,11.43342 -7.036,7.42681 -11.7267,22.28045 -14.072,44.56094 -2.1498,22.08503 -3.2247,52.86729 -3.2247,92.34672 0,20.91239 1.368,40.45666 4.1044,58.63284 2.1497,13.87644 6.7427,24.43036 13.7786,31.66175 7.0359,7.23137 15.049,10.84706 24.0395,10.84706 8.7947,0 16.124,-2.44303 21.9873,-7.3291 7.6222,-6.64506 12.7038,-15.92861 15.2446,-27.8506 3.9088,-18.56706 5.8633,-56.09208 5.8633,-112.57505 0,-33.22529 -1.8567,-55.99437 -5.5703,-68.30726 -3.7133,-12.50836 -9.1857,-21.59643 -16.417,-27.26427 -5.0816,-4.10431 -11.7267,-6.15645 -19.9352,-6.15645 z"
       style="font-weight:bold;font-size:739px;line-height:1.25;font-family:'Times New Roman';-inkscape-font-specification:'Times New Roman,  Bold';display:inline;fill:#954240;stroke-width:0.999988" />
    <path
       d="m 2700.4517,172.302 c 23.844,0 46.0267,6.15642 66.5483,18.46934 20.5214,12.31288 36.0591,29.80501 46.613,52.47639 10.7495,22.67138 16.124,47.4926 16.124,74.46371 0,38.89312 -9.8697,71.43434 -29.6095,97.62366 -23.844,31.66175 -56.7761,47.49261 -98.7965,47.49261 -41.2383,0 -72.9978,-14.46276 -95.2783,-43.3883 -22.2804,-28.92553 -33.4207,-62.44397 -33.4207,-100.55531 0,-39.28401 11.3358,-73.4865 34.0072,-102.60749 22.8667,-29.31642 54.1375,-43.97461 93.8125,-43.97461 z m 1.1727,20.81465 c -9.9677,0 -18.5672,3.81113 -25.7985,11.43342 -7.036,7.42681 -11.7267,22.28045 -14.072,44.56094 -2.1498,22.08503 -3.2247,52.86729 -3.2247,92.34672 0,20.91239 1.368,40.45666 4.1044,58.63284 2.1497,13.87644 6.7427,24.43036 13.7786,31.66175 7.0359,7.23137 15.049,10.84706 24.0395,10.84706 8.7947,0 16.124,-2.44303 21.9873,-7.3291 7.6222,-6.64506 12.7038,-15.92861 15.2446,-27.8506 3.9088,-18.56706 5.8633,-56.09208 5.8633,-112.57505 0,-33.22529 -1.8567,-55.99437 -5.5703,-68.30726 -3.7133,-12.50836 -9.1857,-21.59643 -16.417,-27.26427 -5.0816,-4.10431 -11.7267,-6.15645 -19.9352,-6.15645 z"
       style="font-weight:bold;font-size:739px;line-height:1.25;font-family:'Times New Roman';-inkscape-font-specification:'Times New Roman,  Bold';display:inline;fill:#954240;stroke-width:0.999988" />
    <path
       d="m 2962.1465,57.088 v 261.50246 l 63.6167,-62.44397 c 13.0946,-12.70378 21.2055,-21.88959 24.3325,-27.55743 3.3225,-5.66785 4.9838,-11.14024 4.9838,-16.4172 0,-5.27694 -2.15,-9.67442 -6.4496,-13.19238 -4.2999,-3.51797 -12.7037,-6.05874 -25.212,-7.62227 v -10.84708 h 122.8357 v 10.84708 c -11.7266,0.58631 -21.9874,3.42024 -30.7823,8.50175 -8.7948,4.88608 -25.9938,19.83746 -51.5969,44.85414 l -29.9028,29.31641 64.4962,94.39887 c 25.994,38.30678 41.4339,59.8055 46.3199,64.49612 6.6452,6.64506 15.0493,10.35847 25.2121,11.14024 v 10.55391 h -141.5981 v -10.55391 c 6.2541,0 10.7491,-1.17264 13.4854,-3.51796 2.9316,-2.34532 4.3975,-4.88608 4.3975,-7.62228 0,-4.49518 -4.1043,-12.8015 -12.313,-24.91894 l -54.2352,-79.44751 -17.5899,17.29669 v 49.25159 c 0,20.91237 1.9544,34.00705 5.8632,39.28399 3.9089,5.08151 11.9221,8.30633 24.0395,9.67442 v 10.55391 H 2850.451 v -10.55391 c 11.5312,-1.17264 19.7397,-4.88607 24.6257,-11.14024 3.3225,-4.29974 4.9838,-16.9058 4.9838,-37.81817 V 116.60034 c 0,-20.71694 -1.9545,-33.61617 -5.8633,-38.69768 -3.7134,-5.08151 -11.6289,-8.40404 -23.7462,-9.96758 V 57.088 Z"
       style="font-weight:bold;font-size:739px;line-height:1.25;font-family:'Times New Roman';-inkscape-font-specification:'Times New Roman,  Bold';display:inline;fill:#954240;stroke-width:0.999988" />
  </g>
  <metadata>
    <rdf:RDF>
      <cc:Work rdf:about="">
        <dc:title>ShortBook logo</dc:title>
        <dc:creator>
          <cc:Agent>
            <dc:title>KurachiWeb</dc:title>
          </cc:Agent>
        </dc:creator>
      </cc:Work>
    </rdf:RDF>
  </metadata>
</svg>
